<svg xmlns="http://www.w3.org/2000/svg" viewBox="0 0 640 480" role="img" aria-label="Google Cybersecurity Professional Certificate - Ongoing">
  <defs>
    <linearGradient id="bg" x1="0%" y1="0%" x2="100%" y2="100%">
      <stop offset="0%" stop-color="#0f172a"/>
      <stop offset="100%" stop-color="#111827"/>
    </linearGradient>
  </defs>
  <rect width="640" height="480" rx="24" fill="url(#bg)"/>
  <rect x="24" y="24" width="592" height="432" rx="18" fill="none" stroke="#334155" stroke-width="2"/>

  <circle cx="120" cy="120" r="42" fill="#1e293b"/>
  <path d="M120 86c-14 0-26 11-26 25v8h52v-8c0-14-12-25-26-25z" fill="#4285F4"/>
  <path d="M94 119v34c0 14 12 25 26 25s26-11 26-25v-34" fill="none" stroke="#34A853" stroke-width="10" stroke-linecap="round"/>
  <path d="M120 152v24" stroke="#FBBC04" stroke-width="8" stroke-linecap="round"/>
  <circle cx="120" cy="184" r="6" fill="#EA4335"/>

  <text x="190" y="108" fill="#f8fafc" font-family="Arial, Helvetica, sans-serif" font-size="28" font-weight="700">Google</text>
  <text x="190" y="148" fill="#94a3b8" font-family="Arial, Helvetica, sans-serif" font-size="22" font-weight="600">Cybersecurity</text>
  <text x="190" y="182" fill="#94a3b8" font-family="Arial, Helvetica, sans-serif" font-size="22" font-weight="600">Professional Certificate</text>

  <rect x="48" y="250" width="544" height="3" fill="#334155"/>
  <text x="48" y="292" fill="#cbd5e1" font-family="Arial, Helvetica, sans-serif" font-size="20">Ongoing · Started 8 Jul 2026</text>
  <text x="48" y="328" fill="#64748b" font-family="Arial, Helvetica, sans-serif" font-size="18">Coursera · Google Career Certificates</text>

  <rect x="48" y="352" width="544" height="12" rx="6" fill="#1e293b"/>
  <rect x="48" y="352" width="136" height="12" rx="6" fill="#2563EB"/>
  <text x="48" y="388" fill="#94a3b8" font-family="Arial, Helvetica, sans-serif" font-size="16">2 of 8 courses completed</text>

  <rect x="48" y="408" width="220" height="44" rx="22" fill="#2563EB"/>
  <text x="72" y="437" fill="#ffffff" font-family="Arial, Helvetica, sans-serif" font-size="18" font-weight="700">In Progress</text>
</svg>
